PathFileType	4	(X/Y/Z)	D:\TRACE\v60_Jaco2_6-2-23\JustArmDRS_Motion2_1-Unnamed.trc
DataRate	CameraRate	NumFrames	NumMarkers	Units	OrigDataRate	OrigDataStartFrame	OrigNumFrames
100.00	100.00	      448	0	mm	100.00	1	      7199
Frame#	Time	
		

1	0.000	
2	0.010	
3	0.020	
4	0.030	
5	0.040	
6	0.050	
7	0.060	
8	0.070	
9	0.080	
10	0.090	
11	0.100	
12	0.110	
13	0.120	
14	0.130	
15	0.140	
16	0.150	
17	0.160	
18	0.170	
19	0.180	
20	0.190	
21	0.200	
22	0.210	
23	0.220	
24	0.230	
25	0.240	
26	0.250	
27	0.260	
28	0.270	
29	0.280	
30	0.290	
31	0.300	
32	0.310	
33	0.320	
34	0.330	
35	0.340	
36	0.350	
37	0.360	
38	0.370	
39	0.380	
40	0.390	
41	0.400	
42	0.410	
43	0.420	
44	0.430	
45	0.440	
46	0.450	
47	0.460	
48	0.470	
49	0.480	
50	0.490	
51	0.500	
52	0.510	
53	0.520	
54	0.530	
55	0.540	
56	0.550	
57	0.560	
58	0.570	
59	0.580	
60	0.590	
61	0.600	
62	0.610	
63	0.620	
64	0.630	
65	0.640	
66	0.650	
67	0.660	
68	0.670	
69	0.680	
70	0.690	
71	0.700	
72	0.710	
73	0.720	
74	0.730	
75	0.740	
76	0.750	
77	0.760	
78	0.770	
79	0.780	
80	0.790	
81	0.800	
82	0.810	
83	0.820	
84	0.830	
85	0.840	
86	0.850	
87	0.860	
88	0.870	
89	0.880	
90	0.890	
91	0.900	
92	0.910	
93	0.920	
94	0.930	
95	0.940	
96	0.950	
97	0.960	
98	0.970	
99	0.980	
100	0.990	
101	1.000	
102	1.010	
103	1.020	
104	1.030	
105	1.040	
106	1.050	
107	1.060	
108	1.070	
109	1.080	
110	1.090	
111	1.100	
112	1.110	
113	1.120	
114	1.130	
115	1.140	
116	1.150	
117	1.160	
118	1.170	
119	1.180	
120	1.190	
121	1.200	
122	1.210	
123	1.220	
124	1.230	
125	1.240	
126	1.250	
127	1.260	
128	1.270	
129	1.280	
130	1.290	
131	1.300	
132	1.310	
133	1.320	
134	1.330	
135	1.340	
136	1.350	
137	1.360	
138	1.370	
139	1.380	
140	1.390	
141	1.400	
142	1.410	
143	1.420	
144	1.430	
145	1.440	
146	1.450	
147	1.460	
148	1.470	
149	1.480	
150	1.490	
151	1.500	
152	1.510	
153	1.520	
154	1.530	
155	1.540	
156	1.550	
157	1.560	
158	1.570	
159	1.580	
160	1.590	
161	1.600	
162	1.610	
163	1.620	
164	1.630	
165	1.640	
166	1.650	
167	1.660	
168	1.670	
169	1.680	
170	1.690	
171	1.700	
172	1.710	
173	1.720	
174	1.730	
175	1.740	
176	1.750	
177	1.760	
178	1.770	
179	1.780	
180	1.790	
181	1.800	
182	1.810	
183	1.820	
184	1.830	
185	1.840	
186	1.850	
187	1.860	
188	1.870	
189	1.880	
190	1.890	
191	1.900	
192	1.910	
193	1.920	
194	1.930	
195	1.940	
196	1.950	
197	1.960	
198	1.970	
199	1.980	
200	1.990	
201	2.000	
202	2.010	
203	2.020	
204	2.030	
205	2.040	
206	2.050	
207	2.060	
208	2.070	
209	2.080	
210	2.090	
211	2.100	
212	2.110	
213	2.120	
214	2.130	
215	2.140	
216	2.150	
217	2.160	
218	2.170	
219	2.180	
220	2.190	
221	2.200	
222	2.210	
223	2.220	
224	2.230	
225	2.240	
226	2.250	
227	2.260	
228	2.270	
229	2.280	
230	2.290	
231	2.300	
232	2.310	
233	2.320	
234	2.330	
235	2.340	
236	2.350	
237	2.360	
238	2.370	
239	2.380	
240	2.390	
241	2.400	
242	2.410	
243	2.420	
244	2.430	
245	2.440	
246	2.450	
247	2.460	
248	2.470	
249	2.480	
250	2.490	
251	2.500	
252	2.510	
253	2.520	
254	2.530	
255	2.540	
256	2.550	
257	2.560	
258	2.570	
259	2.580	
260	2.590																																																	-287.07056	802.41632	-181.56935	
261	2.600																																																	-286.65454	802.45947	-181.32927	
262	2.610																																								74.82080	1130.37097	-284.58438							-287.13135	802.65009	-181.24078	
263	2.620	
264	2.630	
265	2.640	
266	2.650	
267	2.660	
268	2.670																												-289.28946	805.66241	-179.25038	
269	2.680																												-287.92352	804.97070	-178.07458	76.13190	1130.70862	-305.85187																84.13104	1128.80847	-311.71811	
270	2.690																																																	84.29534	1129.15381	-311.14932	
271	2.700																												75.91495	1131.53699	-303.34744																			84.66753	1129.57019	-309.72678	
272	2.710																																																	84.65588	1129.82312	-308.67798	-287.52527	805.76813	-176.81345	
273	2.720																																																	84.62018	1130.07861	-307.88528	-290.14743	806.81659	-176.02823	
274	2.730																																																				-288.47433	806.30707	-175.72629	
275	2.740																																								83.63531	1130.82605	-307.36148	
276	2.750	
277	2.760																																		83.71238	1131.61707	-305.56345	
278	2.770																																		84.70238	1131.80103	-304.03970	
279	2.780	
280	2.790	
281	2.800	
282	2.810	
283	2.820	
284	2.830	
285	2.840	
286	2.850	
287	2.860	
288	2.870	
289	2.880	
290	2.890	
291	2.900	
292	2.910	
293	2.920	
294	2.930	
295	2.940	
296	2.950	
297	2.960	
298	2.970	
299	2.980	
300	2.990	
301	3.000	
302	3.010	
303	3.020																																		118.71201	1140.63354	-286.23621	
304	3.030																																		120.18593	1140.72485	-286.02060	
305	3.040																																		122.35249	1140.87366	-284.84360	
306	3.050																																		125.29326	1141.33557	-282.97141	
307	3.060																																		126.39403	1141.07483	-282.92120	
308	3.070																																		127.38853	1141.28650	-283.22247	
309	3.080																																		130.39920	1141.72937	-281.52106	
310	3.090																																		133.32419	1141.91626	-279.58124	
311	3.100	
312	3.110																															137.27486	1142.26709	-277.54877	
313	3.120																															139.30106	1142.92383	-276.89905	
314	3.130	
315	3.140	
316	3.150																															143.10356	1143.49927	-275.30515	
317	3.160	
318	3.170	
319	3.180	
320	3.190																																		149.24530	1144.93652	-272.37802	
321	3.200	
322	3.210	
323	3.220	
324	3.230	
325	3.240	
326	3.250	
327	3.260																																		155.14702	1146.11255	-270.36282	
328	3.270	
329	3.280	
330	3.290	
331	3.300	
332	3.310	
333	3.320																																								157.00893	1147.56030	-268.73587	
334	3.330																																								158.17134	1147.98889	-267.62683	
335	3.340																																								157.73058	1148.37512	-268.07843	
336	3.350																																								157.11908	1148.45337	-268.38266	
337	3.360																																								157.91464	1148.77295	-267.57504	
338	3.370																																								157.81758	1148.68359	-267.46982	
339	3.380	
340	3.390	
341	3.400	
342	3.410	
343	3.420	
344	3.430	
345	3.440																																								155.60886	1149.31201	-267.50885	
346	3.450																																								154.53882	1149.29846	-268.27252	
347	3.460																																								153.63011	1149.52209	-268.66916	
348	3.470																																								152.17735	1149.56604	-269.59302	
349	3.480	
350	3.490																																								150.99713	1149.61475	-269.90842	
351	3.500																																								150.56624	1149.43567	-269.55179	
352	3.510																																								149.23495	1149.23438	-269.77148	
353	3.520																																								148.43425	1149.11096	-269.79141	
354	3.530	
355	3.540	
356	3.550																																		145.26308	1148.81799	-271.26883	
357	3.560																																		144.63339	1148.69043	-271.13458	
358	3.570																																		142.81972	1148.02966	-272.24075	
359	3.580	
360	3.590	
361	3.600	
362	3.610	
363	3.620	
364	3.630	
365	3.640										132.76015	1146.24573	-277.17474	
366	3.650	
367	3.660	
368	3.670	
369	3.680	
370	3.690	
371	3.700	
372	3.710	
373	3.720	
374	3.730	
375	3.740	
376	3.750	
377	3.760	
378	3.770	
379	3.780	
380	3.790	
381	3.800	
382	3.810	
383	3.820	
384	3.830	
385	3.840	
386	3.850	
387	3.860																																					96.81812	1140.85754	-292.79898	
388	3.870	
389	3.880																																					93.71819	1139.98413	-293.70416	
390	3.890	
391	3.900																																					90.37571	1139.39746	-295.85300	
392	3.910																																					87.57432	1138.92322	-297.79977	
393	3.920	
394	3.930																																					84.76156	1138.03198	-298.43622	
395	3.940	
396	3.950																																					81.41074	1137.40479	-300.99277	
397	3.960																																					78.84386	1137.30432	-302.62418	
398	3.970																																					75.51604	1136.90112	-305.13672	
399	3.980																																					74.41087	1136.79749	-305.26816	
400	3.990																																					72.59945	1136.55994	-306.48059	
401	4.000																																					70.85656	1135.75037	-307.21548	
402	4.010							-52.59156	972.60516	152.92308																												70.02901	1135.63477	-307.56879	
403	4.020																																					67.84746	1135.21497	-309.11911							-41.71004	990.70917	162.58443				-65.16789	947.42267	125.47515	
404	4.030																																					66.44006	1134.91077	-309.87985	
405	4.040													-40.94798	1004.75897	157.30946																															-45.73051	990.48761	160.63106				-66.76974	945.87018	125.61218	
406	4.050													-43.20110	1004.18573	156.22066																						-62.22738	964.76404	128.87138							-47.69907	989.82092	158.95889	
407	4.060													-44.42439	1004.01648	155.48090																						-63.49246	964.23065	127.91450																-57.96803	973.29816	151.83183	
408	4.070							-50.45338	989.40967	156.90918				-44.73565	1003.53809	154.54938	
409	4.080							-51.83413	988.85889	155.34273				-45.95801	1003.93152	154.95628																						-61.31926	973.61243	151.27081	
410	4.090	
411	4.100	
412	4.110							-326.89322	810.34540	-179.92552	
413	4.120							-328.71747	809.96973	-180.62581				970.59375	735.68073	63.79454	
414	4.130																																														-79.52403	937.56342	127.95789	
415	4.140							-329.09995	808.73206	-181.33986				-11.36454	1231.24316	309.21814																															-80.32603	937.34467	128.01361	
416	4.150																																														-82.19804	938.42780	128.47931	
417	4.160							-60.44361	994.30255	151.46800				-94.00774	957.83673	137.60384																															-82.33781	938.47308	128.51260	
418	4.170							-62.13286	992.72333	153.71848																																					-82.20673	937.13348	128.11299							-61.89973	997.68658	145.63228	
419	4.180							-80.39246	957.06812	119.40617																																								-31.79770	1227.92114	-290.03101							-332.95541	808.15070	-184.26132	966.03320	733.75610	57.95352	
420	4.190																																																	-32.32466	1227.76135	-291.07632										948.99701	726.00336	36.80918	
421	4.200																																														-89.82906	946.05524	120.62389	-33.95820	1227.78235	-292.39539	-332.23080	805.76862	-185.41490	
422	4.210																																		82.04645	682.10303	-212.30574										-91.40082	945.19989	120.35122	-55.76373	1228.13599	-298.55084				965.58374	733.35199	57.69104	
423	4.220																																																	-58.28329	1227.49768	-299.64752	
424	4.230	
425	4.240	
426	4.250	
427	4.260	
428	4.270																																					100.22355	681.45819	-217.97742	
429	4.280																																					102.43794	680.77258	-219.15720	
430	4.290																																					101.05642	680.73438	-219.73961	
431	4.300																																					100.99026	680.44513	-220.47577	
432	4.310							961.11951	730.63086	52.35477																												99.62800	680.22192	-220.93643	
433	4.320	
434	4.330							959.26617	729.94073	50.61045	
435	4.340							958.76587	729.55103	49.66101																												95.03072	679.37677	-221.92908	
436	4.350	
437	4.360							976.16193	730.85248	52.69785	
438	4.370							957.45526	723.00604	28.56654	
439	4.380	
440	4.390	
441	4.400																																		79.14223	675.08765	-226.46204	
442	4.410	
443	4.420																																		938.05621	720.68054	22.51181	
444	4.430																																		937.48724	720.20020	22.15225	
445	4.440	
446	4.450																																					937.00000	719.87640	21.17767	
447	4.460																																					936.38312	719.69836	20.31764	
448	4.470																																					937.05798	719.56702	20.36425	
